<?xml version="1.0" standalone="no"?><!DOCTYPE svg PUBLIC "-//W3C//DTD SVG 1.1//EN" "http://www.w3.org/Graphics/SVG/1.1/DTD/svg11.dtd"><svg t="1653031149938" class="icon" viewBox="0 0 1024 1024" version="1.1" xmlns="http://www.w3.org/2000/svg" p-id="3811" xmlns:xlink="http://www.w3.org/1999/xlink" width="200" height="200"><defs><style type="text/css">@font-face { font-family: feedback-iconfont; src: url("//at.alicdn.com/t/font_1031158_u69w8yhxdu.woff2?t=1630033759944") format("woff2"), url("//at.alicdn.com/t/font_1031158_u69w8yhxdu.woff?t=1630033759944") format("woff"), url("//at.alicdn.com/t/font_1031158_u69w8yhxdu.ttf?t=1630033759944") format("truetype"); }
</style></defs><path d="M512 64C264.576 64 64 264.576 64 512c0 247.36 200.576 448 448 448s448-200.64 448-448c0-247.424-200.576-448-448-448z m0 832C299.936 896 128 724.032 128 512 128 299.904 299.936 128 512 128s384 171.904 384 384c0 212.032-171.936 384-384 384z" p-id="3812" fill="#cccccc"></path><path d="M512 512m-288 0a288 288 0 1 0 576 0 288 288 0 1 0-576 0Z" p-id="3813" fill="#cccccc"></path></svg>